<?xml version="1.0" standalone="no"?>
<!DOCTYPE svg PUBLIC "-//W3C//DTD SVG 20010904//EN"
 "http://www.w3.org/TR/2001/REC-SVG-20010904/DTD/svg10.dtd">
<svg version="1.0" xmlns="http://www.w3.org/2000/svg"
 width="260.000000pt" height="260.000000pt" viewBox="0 0 260.000000 260.000000"
 preserveAspectRatio="xMidYMid meet">
<metadata>
Created by potrace 1.14, written by Peter Selinger 2001-2017
</metadata>
<g transform="translate(0.000000,260.000000) scale(0.100000,-0.100000)"
fill="#000000" stroke="none">
<path d="M0 1300 l0 -1300 1192 0 1192 0 -32 33 c-36 37 -38 44 -17 67 13 15
-1 31 -145 175 -88 87 -160 160 -160 163 0 2 74 -67 165 -153 91 -87 165 -162
165 -168 0 -6 -8 -19 -17 -29 -16 -17 -15 -20 17 -53 l34 -35 103 0 103 0 0
922 c0 920 0 921 -20 903 -11 -10 -20 -23 -20 -29 0 -7 -20 -32 -45 -56 -25
-24 -45 -49 -45 -55 0 -6 -20 -31 -45 -55 -25 -24 -45 -50 -45 -58 0 -17 -73
-102 -195 -226 -49 -50 -69 -69 -44 -41 25 27 65 71 88 97 23 25 53 60 65 77
13 17 35 42 49 57 15 15 27 32 27 38 0 7 20 33 45 59 25 27 45 51 45 55 0 4
20 27 45 52 24 25 44 50 45 56 0 6 11 23 25 38 l25 27 0 370 0 369 -1300 0
-1300 0 0 -1300z"/>
</g>
</svg>
